<svg xmlns="http://www.w3.org/2000/svg" viewBox="14 10 72 72"><g transform="matrix(1 0.5 1 -0.5 20 29)"><rect x="0" y="0" width="30" height="30" rx="3.9" fill="#0b0b0b"/><rect x="1.65" y="1.65" width="7.8" height="7.8" rx="1.8" fill="#ededed"/><rect x="11.10" y="1.65" width="7.8" height="7.8" rx="1.8" fill="#ededed"/><rect x="20.55" y="1.65" width="7.8" height="7.8" rx="1.8" fill="#ededed"/><rect x="1.65" y="11.10" width="7.8" height="7.8" rx="1.8" fill="#ededed"/><rect x="11.10" y="11.10" width="7.8" height="7.8" rx="1.8" fill="#232323"/><rect x="20.55" y="11.10" width="7.8" height="7.8" rx="1.8" fill="#ededed"/><rect x="1.65" y="20.55" width="7.8" height="7.8" rx="1.8" fill="#ededed"/><rect x="11.10" y="20.55" width="7.8" height="7.8" rx="1.8" fill="#ededed"/><rect x="20.55" y="20.55" width="7.8" height="7.8" rx="1.8" fill="#ededed"/></g><g transform="matrix(1 0.5 0 1.1333 20 29)"><rect x="0" y="0" width="30" height="30" rx="3.9" fill="#0b0b0b"/><rect x="1.65" y="1.65" width="7.8" height="7.8" rx="1.8" fill="#D71921"/><rect x="11.10" y="1.65" width="7.8" height="7.8" rx="1.8" fill="#232323"/><rect x="20.55" y="1.65" width="7.8" height="7.8" rx="1.8" fill="#232323"/><rect x="1.65" y="11.10" width="7.8" height="7.8" rx="1.8" fill="#D71921"/><rect x="11.10" y="11.10" width="7.8" height="7.8" rx="1.8" fill="#232323"/><rect x="20.55" y="11.10" width="7.8" height="7.8" rx="1.8" fill="#232323"/><rect x="1.65" y="20.55" width="7.8" height="7.8" rx="1.8" fill="#D71921"/><rect x="11.10" y="20.55" width="7.8" height="7.8" rx="1.8" fill="#D71921"/><rect x="20.55" y="20.55" width="7.8" height="7.8" rx="1.8" fill="#D71921"/></g><g transform="matrix(1 -0.5 0 1.1333 50 44)"><rect x="0" y="0" width="30" height="30" rx="3.9" fill="#0b0b0b"/><rect x="1.65" y="1.65" width="7.8" height="7.8" rx="1.8" fill="#0051BA"/><rect x="11.10" y="1.65" width="7.8" height="7.8" rx="1.8" fill="#0051BA"/><rect x="20.55" y="1.65" width="7.8" height="7.8" rx="1.8" fill="#0051BA"/><rect x="1.65" y="11.10" width="7.8" height="7.8" rx="1.8" fill="#0051BA"/><rect x="11.10" y="11.10" width="7.8" height="7.8" rx="1.8" fill="#232323"/><rect x="20.55" y="11.10" width="7.8" height="7.8" rx="1.8" fill="#0051BA"/><rect x="1.65" y="20.55" width="7.8" height="7.8" rx="1.8" fill="#0051BA"/><rect x="11.10" y="20.55" width="7.8" height="7.8" rx="1.8" fill="#0051BA"/><rect x="20.55" y="20.55" width="7.8" height="7.8" rx="1.8" fill="#0051BA"/></g></svg>
